<?xml version="1.0" encoding="utf-8"?>
<!-- Generator: Adobe Illustrator 22.0.0, SVG Export Plug-In . SVG Version: 6.00 Build 0)  -->
<svg version="1.1" id="Layer_1" xmlns="http://www.w3.org/2000/svg" xmlns:xlink="http://www.w3.org/1999/xlink" x="0px" y="0px"
	 viewBox="0 0 408.9 98.2" style="enable-background:new 0 0 408.9 98.2;" xml:space="preserve">
<style type="text/css">
	.st0{fill:#FFFFFF;}
</style>
<g>
	<path class="st0" d="M31.7,12.2c-0.3,0-0.4,0.1-0.5,0.1c0,0.3,0,0.2,0.3,0.2c-0.2,0.3-0.3,0.2-0.8-0.1c-0.5-0.3-0.8-0.3-0.8-0.1
		l-0.7,0.1l-1.6,0.1c-2.4-0.1-3.8,0-4.6,0.3L22.2,13l0.4,0.2l0.5,0.1l-0.6,0.4C21.1,13.8,21,14,21.5,16c0.3,0.9,0.5,2.8,0.5,3.8
		c-0.1,1,0.1,2.7,0.2,3.7c0.5,3.6,0.5,4.8,0.6,6.3c0,0.8,0.1,1.7,0.1,2.1c0.1,0.4-0.1,2.1,0,3.7c-0.2,1.7-0.2,3.9-0.3,4.9
		c0,1,0,2.8,0.1,4.2c0,1.4-0.2,3.1-0.1,4.1c-0.1,1.7-0.7,6.8-0.9,6.5c-0.1,0-0.1,0.2-0.1,0.4c0,0.2-0.3,0.4-0.3,0.5
		c-0.2,0.3-0.2,0.3,0,0.4l0.1,0.1c0,0.1,0.1,0.2,0.1,0.3c0,0.1,0,0.1-0.1,0.1h-0.1c-0.3-0.2-0.5,0.4-0.9,2.1
		c-0.2,0.3-0.2,0.9-0.5,1.1c0,0.4-0.1,0.6,0.1,0.6c0.1,0,0.3,0.1,0.3,0.4c0,0.3,0,0.4,0.3,0.3c0.2,0,0.2,0,0,0.2
		c-0.2,0.2-0.4,0.5-0.4,0.8c0,0.3,0,0.4-0.6,0.3c-0.1-0.1-0.1-0.1-0.2-0.1l-0.1,0.1l-0.1,0.1c0,0,0,0-0.1,0c-0.2,0-0.3,0.1-0.2,0.4
		c0,0.1,0,0.3-0.4,0.5c-0.7,0.1-0.7,0.3-0.8,1.3c-0.1,0.9-0.7,1.3-1.4,1.2c-0.4,0-0.8-0.1-1.2-0.9c-1.2-1.7-1.8-7.5-1.5-13.9
		c0.2-3.1,0.1-5.2,0.3-10.2c0-3.2,0.1-7.4,0.4-11.9c0.1-3.4,1.3-13.1,1.7-14.4l0.2-0.8L15,14c-0.5,0-1.5-0.1-2.2-0.2
		c-1-0.1-1.3-0.1-1.9,0.2c-1,0.5-3.4,1-5.1,1.2c-0.8-0.1-1.7,0.2-2.1,0.1C3.6,15.6,2.7,15.9,2,16c-1,0.3-1.2,0.2-1.7,0
		C0,15.8,0,15.8,0.2,15.6c0-0.3,0.2-0.4,0.2-0.6c0-0.2,0.2-0.3,0.4-0.5c0.2,0,0.4-0.1,0.4-0.3c0-0.2,0.1-0.4,0.4-0.4
		c0.1,0,0.7-0.1,0.8-0.1c0.4-0.2,0.9-0.4,1.4-0.4c0.5-0.2,1.1-0.3,1.5-0.5c0.1,0,0.7-0.3,1.4-0.4c0.5,0,1.9-0.3,3-0.9
		c2.1-0.7,4.5-0.9,8.1-1.1c1.2,0.1,2.9,0.1,3.6-0.1c4.5-0.3,8.3-0.1,9.9,0.7c0.1,0,0.6,0.1,0.9,0.1c0.9-0.3,1.1,0.1,0.5,0.7
		C32.4,12,32,12.2,31.7,12.2z"/>
	<path class="st0" d="M31.8,22.2c0.8,0,2.7,0.4,3.3,0.5c1.7,0.7,1.9,1.6,2.1,3.8c0.4,2.1,0,5.7-0.7,7.4c-0.1,0.4-0.1,0.8-0.2,1.1
		l-0.1,0.5c0,0.3,1.3,0.8,1.5,0.6c0.1-0.3,0.7-0.2,1.2-0.2c0.8,0,2.1-0.3,2.1-0.5c0-0.2,1.7-1.9,1.9-1.9c0.1,0,3.1,1.6,3.5,2
		c0.3,0.2,0.7,0.7,0.8,1c0.2,0.3,0.5,0.8,0.8,1.2c0.2,0.3,0.7,1.1,1,1.9c0.7,1.2,0.7,1.3,0.5,2.1c0,0.9-0.1,1-0.8,1.5
		c-0.7,0.5-1,0.7-1.3,0.5c-0.4-0.1-0.5,0-0.7,1.2v0.7c0.3-0.2,0.2-0.2,0.3-0.2c0.3,0,0,1.8-0.3,2c0,0.1-0.1,1-0.3,2.7
		c-0.1,1.3-0.4,2.8-0.4,3.3c-0.1,0.5-0.1,0.9,0,1.1l0.1,0.1c0,0.1,0.1,0.1,0.1,0.2c0,0.2,0,0.3,0.1,0.5c0,0.1,0,0.2,0.1,0.2
		c0.3,0.2,0.3,0.3,0.2,1c-0.3,1.4-0.3,4.5,0,5.6c0.1,0.1,0.1,0.3,0,0.3c-0.1,0-0.2-0.2-0.2-0.5c0,0,0-0.1-0.1-0.2l-0.1-0.1
		c-0.3-0.3-0.2-0.4-0.4-0.7c0-0.3-0.1-0.8-0.1-1c-0.2-0.3-0.2-0.7,0-1v-2.6c0.1-0.5,0.1-0.9,0.1-1.3c-0.1-0.3-0.1-0.2-0.3,0.8
		c-0.1,0.8-0.1,1.7-0.1,2.1c0,0.4,0,1.1-0.2,1.4c-0.2,2.5-0.1,4.4,0,4.2c0,0,0.1,0,0.1,0c0.1,0.1,0.1,0.2,0.1,0.3
		c0,0.2,0,0.3,0.1,0.5c0.3,0.1,0.3,0.1,0.2-0.3c0-0.5,0-0.5,0.1-0.2l0.2,0.3l0.1,0.2c0,0.1,0,0.1,0.1,0c0-0.2,0-0.4,0.1-0.6
		c1.2-1.6,3-5.1,4.2-7.8c0.1-0.5,0.5-0.9,0.7-1.3l1.2-2.5c1.1-2.1,2.5-4.9,2.7-5.4c0.2-0.3,0.2-0.3-0.1-0.2c-0.3,0-0.4,0.2-0.4,0
		c-0.1,0,0.4-0.7,0.7-0.8c0.3-0.2,1.3-1.9,1.3-2.4c0-0.3,1-3.5,1.3-4.4c0.6-0.7,1.7-2.2,2-2.2c0.2,0,0.2,0.7-0.2,1.2
		c-0.1,0.3-0.5,1-0.7,1.3c-0.2,0.5-0.5,1.2-0.7,1.7c-0.2,0.3-0.4,1.2-0.5,1.5c-0.1,1.6-0.6,3.4-1.1,4.4c-0.4,0.7-0.9,2-1.6,3.3
		l-0.6,1.3c-0.7,1.5-1.2,2.7-1.1,2.9c0,0.2,0,0.4-0.1,0.5l-0.1,0.2l-0.2,0.3c0,0.3-0.1,0.5-0.3,0.5c-0.1,0-0.2-0.1-0.2-0.3
		c0.2-0.3,0-0.3-0.2-0.3c-0.1,0.1-0.3,0.1-0.3,0.3c0,0.1-0.3,0.6-0.7,1.3c-0.3,0.7-0.5,1.6-0.7,1.7c0,0.3-0.3,1-0.7,1.7
		c-0.3,0.9-0.7,1.7-0.8,2.9c-0.2,1-0.3,2-0.5,2.3c-0.3,1,0.9,2.3-0.3,2.7c-0.4,0.1-1.2,0.5-1.5,0.7c-1.9,1.2-2.1,1.3-3.3,1.3
		c-1.1-0.2-1.6-0.5-3.4-2c-0.8-1.1-1-1.2-0.8-1.4c0.3-0.1,0.4-0.1,0.2-0.8c-0.3-0.3-0.2-0.7-0.2-0.8l0.1,0.1c0,0.1,0.1,0.1,0.1,0.2
		c0.1,0.3,0.1,0.5,0.3,0.5c0.2,0-0.3-1.1-0.7-1.3c0-0.3-0.2-0.5-0.2-0.7c0-0.9-0.6-2.5-0.8-2.4c0,0,0,0-0.1,0c0,0-0.1,0.1-0.1,0.1
		v0.2C38,62.3,38,62,37.8,61.7c0-0.1,0-0.3-0.1-0.5L37.6,61c-0.3,0.1-0.5-1.3-0.7-3.7c0-2.7,0-4.4,0.5-5.9c0.6-1.3,1.1-4.4,1-4.4
		l-0.2,0.4C38.2,47.9,38,47.7,38,47c0-1.2,0.5-4.2,1-6.4c0.7-2.7,0.6-2.7,0.4-2.8c-0.1,0-0.4,0.1-0.8,0.3c-0.5,0.5-0.6,0.5-2.7,0.5
		c-1.7-0.1-2-0.2-2.8-0.5c-1.2-0.5-1.3-0.5-2,0.3c-0.2,0.1-0.3,0.3-0.5,0.3c0-0.1,0-0.3,0.3-0.5c0.3-0.4,0.3-0.7,0.2-0.7
		c-0.1,0-0.2-0.1-0.2-0.4c0.1-0.1,0.1-0.1,0.1-0.2L31,36.9c-0.1,0-0.7-0.5-1.3-1.2c-0.7-0.7-1.3-1.2-1.5-1.2l-0.7-2.2
		c-0.5-1-0.5-1.6-0.2-3.9c0.4-1.9,0.8-3.3,1.5-4.6c0.5-0.7,1-1.2,2.5-1.7H31.8z M35,26.3c-0.4,0-1.3,0.8-1.9,1.6
		c-0.3,0.8-0.5,1.3-0.5,2.4c0,0.9-0.4,1.6,0.3,2.6l2,2l0.7-1.3c0.7-3.8,1.6-5-0.5-7.3H35z M43,62.5c-0.5,0.3-0.5,0.8-0.1,1.9
		c0.1,0.6,0.3,0.9,0.4,0.9c0.1,0.1,0.4,0,0.1-0.2c-0.1-0.1-0.1-0.3-0.2-0.5l-0.1-0.4c0.2,0,0.5,0.3,0.8,0.7c0.5,0.5,0.9,0.8,1,0.8
		c0.1,0,0-0.8-0.3-1.3c-0.1-0.3-0.1-0.7-0.1-0.8c0.1-0.3,0.2-0.2-0.2-0.2c-0.1,0.3-0.1,0-0.3-0.4c0-0.4-0.2-0.7-0.5-0.7
		C43.4,62.1,43.3,62.3,43,62.5z M42.6,61.1c0.3-0.1,0.3-0.5,0-0.7V61.1z"/>
	<path class="st0" d="M91.4,39.5l-0.1,0.3c0,0.2-0.1,0.4-0.1,0.7c-0.2,0.4-0.5,1.4-0.7,2.4c-0.4,0.9-0.6,2.1-0.8,2.4
		c-0.1,1.3-0.5,2.1-0.7,1.9c0,0-0.1,0-0.1,0c0,0,0,0.1,0.1,0.2c0,0.1-0.7,2.6-1,3L87.8,51c-0.1,0.4-0.3,0.8-0.5,1.4
		c-0.9,2.5-3,5.8-4.2,6.2c-1.7,0.8-4.8-1.1-6-3.5c-0.4-0.8-1.3-3.9-1.6-6.8c-0.2-1.2-0.4-2.7-0.4-5.3v-3.3c-0.1,0-0.3,0.4-0.3,0.7
		c0,0.4-0.6,1.2-0.9,2.3c-0.6,0.9-1.4,2.8-2.1,4c-0.7,1.3-1.5,2.6-1.6,3c-0.2,0.1-0.5,0.9-0.9,1.2c-0.5,1.1-1.7,2.3-2.5,2.6
		c-0.9,0.4-2.3,0.4-3.3,0.2c-0.7-0.3-1.2-0.7-2-1.3l-1.1-1.1l-2.4-4L56.7,43l-0.1-3.8l1.1-5.2l2.8-5.8l0.5-0.9
		c1.3-2.6,4.3-5.9,5.6-6.8c0.4-0.4,0.9-0.7,1.2-0.9c0.3-0.4,0.7-0.5,0.9-0.5c0.1,0.2,0.5,0,0.7-0.2c0.1-0.1,0.1-0.1,0.5,0
		c0.3,0.2,1.2,0.7,2.1,1.1c1.9,1.1,3.4,2.4,4.3,4.3c0.3,1,0.3,1.2,0,3c-0.2,1.3-0.2,1.5-0.7,1.8c-0.1,0-0.5,0.3-0.5,0.5
		c0,0,0,0.1,0,0.1c0,0-0.1,0.1-0.1,0.1V28c0.1-1.6,0.1-1.9-0.1-2.3c-0.3-0.1-0.4-0.4-0.4-0.7c-0.2-0.7-0.5-1.2-1.1-1.2
		c0,0-0.1,0-0.2,0c-0.1,0-0.3-0.1-0.3-0.1c-0.1-0.1-0.3-0.3-0.3-0.3l-0.2-0.1c-0.2,0-0.2,2.4,0,2.6c0.1,0.1-0.3,1-0.9,1.2
		c-0.5,0.3-0.3,0.7-2.1,3c-0.2,0-1.6,2.1-1.4,2.4c0,0.3-0.2,0.8-0.3,1.5c-0.3,0.5-0.5,1.2-0.5,1.6c0,0.1,0,0.8-0.2,1.2
		c-0.4,0.7-0.5,1.9-0.7,4.5c0,0.7,0,0.9,0.4,0.9c0.5,0.3,0.6,1.1,0.2,1.8c-0.4,0.5-0.4,1.6,0,3.3c0.4,1.1,0.4,1.5,0.2,1.5
		c-0.3,0.1-0.2,1.9,0.2,2.2c0.3,0.3,0.9,0,1.9-1.2c1.3-1.6,4.1-7.2,4.4-8.6c0.3-0.5,0.6-1.6,0.9-2c1.3-3.2,1.3-3.1,1.3-5.6
		c0-2.4,0-2.4,0.5-3.3c0.3-0.7,0.7-1.1,1.1-1.1c0.7-0.2,2.1,0,3,0.3c2.8,1.3,3.3,1.6,4.2,2.5c0.4,0.5,0.9,1.2,0.9,1.4
		c0.5,1.2,0.1,4.9-0.5,6.8c-0.2,0.7-0.4,1.2-0.2,2c0,0.8,0,1.6-0.2,2.5c-0.4,1.1-0.4,1.3,0,3.7c0.2,1.4,0.2,3.3,0.2,4.4v2l-0.2-0.6
		l-0.5-0.3v0.3c0,0.3,0.1,0.5,0.4,0.7c0.1,0.4,0.1,0.4,1.1-0.5c0.3-0.5,0.8-1.5,1.2-1.9c0.2-0.6,0.5-1.6,0.9-2.1
		c0.9-1.9,1.3-3,3-9.4c0.5-2.6,1-3.7,1.4-3.7c0,0.1,0,0.2,0.1,0.3c0,0.2,0,0.6-0.1,1.3C91.7,39.1,91.6,39.4,91.4,39.5z"/>
	<path class="st0" d="M91.3,28.9c0-0.3,0.1-1,0-1.5c0-1.4,0.4-2.6,0.8-4c0.1-0.2,0.3-0.4,0.3-0.7l0.1-0.4c0-0.4,1.1-1.3,1.7-1.3
		c0.7-0.1,2.9,0.7,3.4,1.3c0.4,0.1,0.7,0.7,0.7,1.1c0.3,0.5,0.5,1.1,1.4,2c0.6,0.5,1.3,1.2,1.3,1.6c0.2,0.2,0.6,0.5,1.2,0.9
		c1.6,1.1,1.7,1.3,1.9,5.7c0,4.6,0.8,14.3,1.5,16.5c0.1,1,0.5,1.9,0.7,2.5c0.3,0.4,0.5,0.9,0.3,1.1c0,0.3-0.2,0-0.5-0.7
		c-0.3-0.5-0.3-0.2-0.5,0.8c-0.1,1,0.2,1.9,0.6,1.9l0.1-0.1c0.1-0.1,0.1-0.2,0.2-0.5c0.2-0.3,0.7-0.8,0.9-1.2c0.5-0.7,3.3-8,4-9.7
		c0.2-0.6,0.4-2.2,0.9-3.2c2-7.7,2.4-9.4,2.4-9.9c0-0.4,0.3-1.6,0.6-2.4c0.1-1,0.5-2,0.4-2.5c0-0.4,0.1-0.8,0.3-0.8l0.1-0.3
		c0.1-0.2,0.1-0.4,0.2-0.7c0.3-0.4,0.5-0.8,0.7-1.1c0.4,0,1-0.1,0.8,0c0,0.2,0.1,0.4,0.2,0.6c0.4,0.3,0.7,0.9,0.5,1.1
		c-0.2,0.2-0.1,0.3-0.1,0.6c0,0.4,0,0.6-0.3,0.6c-0.3,0.3-0.2,0.2-0.2,0.4c0,0.2-0.5,1.6-1,2.4c-0.1,0.4-0.3,0.8-0.3,1
		c0,0.3-0.2,0.4-0.3,0.8c-0.2,0.2-0.3,0.6-0.3,1c0,0.1-0.1,0.3-0.1,0.4l-0.1,0.2c-0.3,0.3-0.1,0.6,0.3,0.5c0.2,0,0.2,0.2,0.1,1.7
		c-0.1,1.4-0.7,3-1.5,3.9c-0.5,0.8-1,2.2-0.9,2.9c-0.1,0.4-0.1,0.7-0.3,1c-0.1,0-0.3,0.4-0.5,0.8c0,0.6,0,1.5-0.4,2.4
		c-0.1,1-0.3,1.8-0.3,2c0,0.4-0.2,1-0.4,1.4c-0.2,0.3-0.3,0.6-0.4,0.9l-0.1,0.4c0,0.2-0.8,2-0.9,2.4c-0.3,0.3-0.5,0.8-1,1.6
		c-0.3,0.8-1.1,1.6-2,2.5c-0.7,0.7-1.3,1.5-1.8,1.7c-0.1,0.4-0.5,0.7-0.7,0.7s-0.9,0.9-0.9,1.2c0,0.2-0.7,0.6-1.5,0.7
		c-0.6,0-1.2-0.1-2-0.6c-1.3-0.5-1.5-0.7-2.5-1.9c-0.6-0.9-1.1-1.5-1.3-1.5c-0.2,0-0.5-0.5-0.5-0.9c0-0.2,0-0.2,0.2-0.2
		c0,0.2,0-0.4-0.3-0.8c-0.9-1.6-1.4-3.2-1.9-4.9c-0.3-1.7-0.6-1.9-0.7-1.7c0,0.1,0,0.1,0,0.2c0,0.2,0.1,0.3,0.2,0.3
		c0.3,0.6,0.4,2.3,0.2,2L94,50.5c-0.1-0.4-0.3-0.9-0.4-1.5c-0.6-2.3-0.8-4-0.4-3.9c0.2,0.2-0.4-4.2-0.8-4.6
		c-0.3-0.4-0.3-0.9-0.1-1.2c0-0.1,0-0.1,0-0.2c0-0.1,0-0.2,0-0.4c0-0.1-0.1-0.1-0.1-0.3l-0.1-0.1c-0.2,0-0.1,0-0.4,0
		c-0.2-0.4-0.6-4.8-0.6-6.8C91.2,30.5,91.3,29.3,91.3,28.9z"/>
	<path class="st0" d="M131.8,20.5c0.2,0.1,0.7,0.3,0.8,0.3c0.1,0,0.5,0.2,0.8,0.4c0.3,0.1,0.8,0.3,1,0.3c0.1,0,0.5,0.2,0.9,0.4
		c0.1,0,0.5,0.1,0.7,0.1c0.3,0,1.3,0.8,1.3,1.1c0,0.2-0.2,0.2-0.3,0.3c-0.2,0-0.2,0.2,0.5,0.8l0.5,0.7c0.1,0.1,0.2,0.2,0.3,0.3
		c0,0,0.1,0,0.1,0c0.1,0,0.1,0,0.2-0.1c0.1-0.4,0.1-0.4,0.5,0c0.5,0.5,0.7,1.7,0.5,2.3c0,0.2-0.1,0.3-0.2,0.4
		c-0.3,0.2-0.3,0.2-0.2,0.7c0.3,0.3,0.3,0.3,0,0.6c-0.1,0-0.2,0.2-0.3,0.6c-0.1,0.3-0.1,0.7-0.3,0.9l-0.1,0.4c0,0.2,0,0.4-0.1,0.5
		c-0.2,0.2-0.3,0.2-0.7-0.1c-0.1-0.4-0.1-0.4-0.1-0.5c0,0,0.1,0,0.1-0.1c0,0,0-0.1,0-0.1c0,0,0-0.1,0-0.4l0.1-0.6
		c0-0.2,0-0.3,0.1-0.5c0-0.1,0-0.1,0-0.2c-0.1,0.1-0.3,0-0.5-0.3c-0.1-0.1-0.1-0.3-0.3-0.5c-0.1-0.3-0.1-0.6-0.2-0.8
		c-0.5-1.8-0.5-2.4-0.5-2.6c0-0.1-0.2-0.1-0.3,0l-0.1,0.3c0,0.2-0.1,0.4-0.1,0.5c0,0.7,0,0.8-0.5,1.2c-0.2,0.3-0.5,0.4-0.7,0.4
		c-0.3,0-1.5,1.1-1.8,1.6l-2,2.7c-1.2,1.5-2.5,3.5-3,4.4c-0.2,0.4-0.3,0.9-0.5,1.1c-0.5,0.7-0.3,0.8,1.3,0.7c1.5,0,2.5-0.2,3.6-0.9
		c0.5-0.4,1.1-0.8,1.6-1.5c0.3-0.3,0.5-0.6,0.8-0.9c0.4-0.4,0.7-0.7,0.9-0.6h0.1c0.1,0,0.1,0,0.2-0.1c0-0.2,0.2-0.2,0.3,0
		c0.1,0.3,0.8-0.9,1.1-1.5c0.1-0.4,0.3-0.4,0.3-0.3c0.1,0.3,0.1,0.3,0.3,0.1c0.1-0.1,0.1-0.1,0.1,0.2c0,0.4-1.1,2.4-1.3,2.4
		c-0.1,0-0.5,0.5-0.8,1.1c-0.3,0.5-0.5,0.8-0.8,1.1c-0.7,0.8-1.3,1.3-2.4,1.7c-0.4,0.1-0.9,0.3-1.6,0.4c-1.1,0.2-2.4,0.3-3.2,0.1
		c-0.7-0.2-1.1-0.2-1.3,0c-0.1,0.1-0.2,3.5,0,4.8c0.2,1.1,0.3,1.4,0.7,1.6c0.2,0,0.3,0.5,0.3,1.1c0,0.2,0.2,0.7,0.5,1
		c0.1,0.4,0.3,0.4,0,0.3c-0.3-0.3-0.3-0.1,0,0.5c0.3,0.3,0.3,0.4,0.8,0.3c0.3,0,0.7,0,1,0.2c0.3,0.4,0.8,0.4,1.9,0.4
		c1.6,0,2,0.1,1.8,0.6c0,0.3-0.8,0.6-1.3,0.1c-0.3-0.3-1.5-0.5-2.5-0.5c-0.8,0-0.8,0-0.5,0.5c0.3,0.5,0.7,1.7,0.3,1.4
		c0,0-0.1,0-0.2,0c-0.1,0-0.3-0.1-0.3-0.1c-0.3,0-0.5,0-0.5-0.6c0-0.7-0.4-1.6-1-1.6c0,0,0,0.1,0,0.1c0,0.1,0.1,0.1,0.1,0.2
		c0.1,0.1,0.1,0.3,0,0.5c-0.2,0.3,0.5,1.7,0.8,1.7c0.3,0,0.2,0,0.2,0.1c0,0.2,0.5,0.2,0.7,0v0.2c0,0.3,0,0.5,0.3,0.8
		c0.1,0.1,0.5,0.3,0.7,0.1c0.1,0,0.1,0,0-0.1c-0.3,0-0.3-0.6-0.2-0.6c0.2-0.2,1,0.6,1,0.9c0,0.4,1.5,1,3.2,1.4
		c0.9,0,1.9-0.2,2.3-0.6c0.9-0.7,3.3-3.1,3.8-3.8c2.9-3.6,4.3-5.9,5.2-7.7c0.7-1.7,2.2-4.8,2.7-5.1c0.5-0.3,0.5-0.3,0.3,0.3
		c-0.1,0.3-0.3,0.6-0.5,0.8c-0.2,0.2-0.3,0.3-0.3,0.4v0.2c-0.2,0.2-1.6,3.1-2,4.4c-0.2,0.6-1.4,3.2-2,3.8c-0.1,0.3-0.3,0.6-0.5,0.8
		c-0.7,1.1-1.8,2.8-3,4.4c-0.7,1-1.3,2.2-1.6,2.7c-0.5,1-1.5,1.9-2.7,2.7c-0.8,0.6-1.1,0.8-2.7,0.9c-1.5,0.3-2,0.3-3.2,0.1
		c-1.7-0.1-3.5-0.9-4.6-2c-0.5-0.4-1-0.7-1.2-0.7c-0.3,0-0.5-0.3-0.3-0.5c0.4,0-0.8-2.4-1.6-2.9c-0.9-0.8-1.1-0.6-0.4,0
		c0.5,0.6,0.9,1.3,0.7,1.3c-0.3,0-2.2-2.8-2.5-3.4c0-0.5-0.2-1-0.3-1.3c-0.2-0.5-0.3-0.8-0.3-0.9c0-0.4,0-0.5-0.2-0.8
		c-1.1-1.2-1.7-7.9-1-11.1c0.7-4.5,2.1-7.2,5.8-11.3c1.7-1.9,2.9-2.8,4.7-3.8c0.8-0.6,1.3-0.8,1.8-0.8
		C131.1,20.1,131.4,20.3,131.8,20.5z"/>
	<path class="st0" d="M158.9,0.3c0.4,0.1,0.8,0.3,1.2,0.3c0.3,0,0.7,0.1,1.1,0.4c0.2,0,0.5,0.1,0.9,0.1c0.3,0,0.5,0,0.7,0.3
		c0.1,0.1,0.5,0.7,1,1c0.8,0.8,1.2,1.4,1.2,2.1c0,0.3,0.1,0.5,0.2,0.5c0,0,0,0,0.1,0c0,0,0,0.1-0.1,0.1c0,0.1,0,0.5,0.2,1.1
		c0.4,0.7,0.4,0.9,0.2,1.9c0,0.7-0.2,2.5-0.2,3.9c0,3.1,0,3.4-1.2,5.8c-0.1,0.3-0.1,0.7-0.1,0.8c0,0.5-1.9,3.2-2.3,3.2
		c-0.2,0-0.2,0-0.2,0.3c0.2,0.3-0.3,1.3-1.1,2.1c-0.3,0.5-1,1.3-1.6,1.8c-0.4,0.6-0.9,1.3-1.2,1.4c-0.9,0.7-1.2,2.3-1.1,4.9
		c0,1.1,0.1,1.9,0.4,2.1c0,0.1,0.1,0.4,0.1,0.6c0,0.8,0.5,3.3,0.7,3.5c-0.2-0.3,0-1,0.3-1l0.1,0.2c0.1,0.1,0.1,0.3,0.1,0.4
		c0,0.7-0.3,0.8-0.4,0.8c-0.3,0-0.3,0,0,0.3c0.1,0.4,0.1,0.4,0.1,0.7c-0.1,0.2-0.1,0.3-0.1,0.5c0.4,0.2,0.7,1.5,0.7,2.9
		c0.3,0.8,0.2,1.3,0.6,1.5c0.3,0.4,0.9,2.3,0.7,2.4c-0.1,0-0.1,0-0.1,0.1c0,0,0,0.1,0,0.1c0,0,0,0,0.1-0.1c0.2,0,1.5,3.4,2,5.5
		c0.3,1.1,0.7,2.3,1.1,2.6c0.2,0.2,0.7,0.8,1.1,1.5c1,1.6,1.2,1.8,1.7,1.1c0.2-0.3,0.3-0.6,0.3-0.8c0-0.1,0.1-0.3,0.1-0.4
		c0.1-0.3,0.3-0.6,0.6-1.1c1.1-2.1,1.4-3.5,2.5-8.1c0.3-1.9,2-9.8,2-10.3c0-0.7,0.3-0.4,0.5,0.3c0.2,0.5-0.7,5.3-0.9,7.1
		c0,1.8,0,2.3,0.2,2.4c0.1,0.1,0.1,0.4-0.4,1.4c-0.2,0.2-0.3,0.8-0.5,1.3c0,0.5-0.4,1-0.4,1.3c-0.1,0.1-0.1,0.4-0.1,0.8
		c0,0.1-0.2,0.7-0.2,0.8c-0.1,0-0.3,0.7-0.5,1.3c0,0.7-0.5,2.3-0.9,3.6c-0.3,0.7-0.4,1.2-0.5,1.7c-0.1,0.3-0.1,0.5-0.1,0.7
		c0,0.2,0,0.5-0.4,0.7c-0.4,0.3-1.2,1.6-1.2,1.8c0,0.5-1.1,1.5-1.7,1.7c-1.8,1.1-3.7,0.9-5.6-0.4c-1.3-0.8-3.1-2.3-3.8-3.5
		c-1.6-2.6-2.3-3.9-2.8-5.1c-0.3-0.8-0.8-2.4-1.2-3.6c-0.5-1-0.9-2.4-1.2-3.1c-0.4-1.1-0.3-1.3-0.7-1.3s-0.4,0.1-0.5-2.6
		c0-0.5-0.1-1.2-0.3-1.5c-0.1-0.5-0.5-1.3-0.5-2l-0.2-0.9l-0.1-0.4h-0.4c-0.2,0.1-0.2,0.3-0.2,0.6c0,0.1-0.1,0.2-0.1,0.3
		c0,0.1,0,0.1-0.1,0.2c-0.2,0-0.3-0.9-0.3-1.7c0-2.5,0-2.7,0.3-3.2c0.6-0.9,0.7-2.9,0-2.9c-0.3,0-0.3-0.2,0-0.5
		c0.2-0.1,0.2-0.3,0-0.3c-0.3-0.1-0.3-0.9-0.2-1.6c0.2-0.5,0-1.3-0.1-1.1c-0.2,0.1-0.2,0.5-0.2,0.8c0,0.3-0.1,0.4-0.1,0.6l-0.1,0.2
		c-0.1,0-0.2-0.4,0-4.4c0-1.5,0.2-2.7,0.5-3.7c0.2-0.7,0.4-1.5,0.4-1.6s0-0.5,0.2-0.8c0.2-0.2,0.5-1.1,0.8-2.1
		c0.3-0.9,0.9-2.4,1.3-3.4c1.6-4.2,2.3-6,2.1-6.3c0-0.4,0.5-2,1.2-2.8c0.3-0.3,0.7-1.1,1.1-1.6c0.7-1.3,1.8-3,2.5-3.6l0.5-0.4
		l0.2-0.2c0-0.2,0.2-0.2,0.5-0.3c0.1,0,0.3,0,0.5-0.1l0.2-0.1C157.7,0,157.9,0,158,0C158.2,0,158.5,0.1,158.9,0.3z M163.3,9.9
		l-0.2,0.1c-0.2,0-0.7,1-1.6,2.6c-0.5,1.1-2.3,6.2-2.3,6.5c0,0.2-0.2,0.9-0.6,1.8c-0.5,1.6-0.8,3.1-0.8,3.6c0,0.3,0.1,0.3,0.5-0.3
		c0.3-0.4,0.9-0.8,1-1.3c0.2-0.5,0.5-1.1,0.9-1.5c0.3-0.3,0.7-1.2,0.9-1.8c0.3-0.5,0.5-1.2,0.7-1.3c0-0.1,0.2-0.6,0.4-1.1
		s0.1-0.8,0.4-0.8c0.3,0.4,0.7-2.3,0.8-6c0-0.8,0.2-1.1,0.6-1.8c0-0.2,0.1-0.3,0-0.3C163.9,8.3,163.3,9.6,163.3,9.9z"/>
	<path class="st0" d="M216.2,15.4c0,0.5-0.3,1.1-0.4,2c0,0.7-0.7,2.5-1.1,4c-1.1,3.4-1.3,4.5-1.9,7.4c-0.3,1.4-0.7,2.7-0.7,2.9
		c0,0.4-0.4,1.6-0.4,2.4c-0.5,1.4-1.6,4.4-2.3,5.4c-0.1,0-0.1,1.1-0.4,2.5c0,2-0.5,4-0.7,4.3l-0.1,0.9c-0.1,0.5-0.2,1.3-0.3,2
		c-0.4,2.9-0.6,3.5-0.8,2.9c-0.3-0.3-0.2,0.4-0.2,1.3v4.7c-0.2,2.3-0.2,2.9-0.6,3.9c-0.5,0.5-0.4,1.2-0.4,2.9c0,1.6,0,2-0.2,2
		c-0.1,0-0.4,0.2-0.6,0.2c0,0.3-0.6,0.6-1.3,0.9c-0.6,0.5-1.5,0.9-1.9,1.1c-0.6,0.4-1,0.4-1.9,0.4c-1.4-0.2-2.4-0.8-3.5-2
		c-0.6-0.5-1-0.9-1.2-0.9c-0.8,0-1.7-1.5-1.9-3.4c-0.2-0.7-0.4-2.5-0.8-3.8c-0.4-1.3-0.6-3.6-0.9-5.2c-0.2-4.1-0.8-6.1-1.4-6.7
		c0-0.3-0.3-0.4,0-0.7c0.1-0.5-0.9-4.5-1.1-4c-0.7,0.8-2.1,4.2-2.1,4.7c0,0.4-0.8,3.6-1.9,6.5c-0.4,1.1-0.8,2.4-1,3.1
		c-0.2,1.4-0.7,4.8-0.4,4.8c0,0,0.1,0,0.1,0.1c0,0,0,0,0,0.1c0,0.3-0.1,0.2-0.4,0.2c0-0.3-0.1,0-0.4,0c0,0.3-0.2,0.4-0.6,0.4
		c-0.4,0-0.6,0.3-0.8,0.9c-0.7,0.9-1.3,1.2-2.3,1.5c-2.3,0.3-4.2-1.3-4.6-4c-0.4-1.6-0.9-7.8-1.6-13.6c-0.3-1.2-0.4-2.9-0.6-4.1
		c-1.1-5.6-1.7-10.3-2.1-14.5c-0.6-6.5-0.9-9.8-1.6-12.7c-0.4-1.7-0.2-2.6,0.7-3.3c0.8-0.7,3.1-0.9,4.4-0.4c0.9,0.2,2.7,1.5,3.5,2.9
		c0.6,1.1,0.8,1.6,1.4,5.8l0.9,4c0.8,2.7,1.8,8.6,2.3,12.6c0.2,2.8,0.6,5.6,0.8,7c0.2,0.9,0.2,2,0.4,2.8c0,0.4,0,0.7,0.1,1l0.1,0.4
		c0-0.2,0.1-0.5,0.2-0.7c0.1-0.4,0.3-1,0.4-1.5c0.3-1.8,0.7-3.2,1.7-5.4c0.8-1.8,1.4-3.4,1.4-3.8c0-0.5,0.8-1.5,1.4-1.8
		c0.2-0.2,2.3-3.4,2.9-4.7c0.2-0.6,0.6-1.1,0.6-1.3c0.1,0,0.5-0.4,0.8-1.1c0.9-1.1,1.5-1.1,2.9-0.4c0.5,0.4,1.3,0.7,1.5,0.8
		c0.8,0.3,1.4,1.4,1.4,2.5c0.3,0.4,0.4,1.1,0.8,1.8c1.1,1.1,1.3,1.6,2.5,5c1.1,3.1,1.7,6.7,1.7,8.7c0,0.5,0.2,1.3,0.4,2l0.7,1.1
		v-1.3c0.3-2.4,1-6.5,1.6-9.4c0.5-1.9,0.7-3,0.5-3c-0.3-0.3,0-0.4,0-0.6c0.4-0.5,1.2-3.6,1.4-6.3c0.7-3.4,0.9-4.5,1.3-6.1
		c0.4-0.6,0.8-2.3,1.2-3.5c0.4-2.8,2.1-8.3,2.5-9.3c0.4-0.6,1.5-2,2.1-2.2c0.6-0.3,0.8,0,0.6,0.5c-0.3,0.2-0.3,0.6,0,0.8
		c0,0.3,0.1,0.3,0.4-0.5c0.4-1.1,1.1,0.4,0.6,2.1C217,13.4,216.4,15.2,216.2,15.4z"/>
	<path class="st0" d="M228.8,21.9c1.2,0,1.5,0.2,2.1,0.5c0.3,0.1,0.5,0.2,0.7,0.3l0.3,0.2c0.4,0,0.9,0.4,0.9,0.9
		c0,0.2-0.2,0.5-0.5,0.8c-0.4,0.2-0.9,1-1.3,1.7c-0.6,1.1-0.7,1.3-0.8,3c0,1.6,0,2,0.4,2.8c0.2,0.5,0.8,1.2,1.1,1.6
		c0.4,0.5,0.5,0.9,0.2,0.8c-0.3,0-0.3,0,0,0.3c0.2,0.4,3.1,2.5,3.3,2.3l0.1-0.5c0-0.3,0.1-0.6,0.1-0.8c0-0.2,0.3-1.8,0.1-3.5
		c0.3-1-0.1-2.7-0.7-4.2c-0.8-1.8-1.6-3.5-1.9-3.3l0.1-0.1c0-0.1,0.1-0.2,0.1-0.4c0-0.7,0.2-0.8,0.7,0c0.1,0.1,0.1,0.3,0.2,0.4
		c0,0.1,0,0.2,0,0.2c1.5,0.5,2.3,2.6,2.9,4.5c0.2,0.6,0.3,1.1,0.5,1.6c0.3,0.6,0.5,1,0.7,1.2c0.3,0.4,0.2,1.5,0.2,2.8l-0.6,4.9
		c0.3-0.1,0.9,0,1.3-0.1c0.3-0.1,0.5-0.1,0.7-0.3c0.5-0.2,1-0.2,1.5-0.4c0.3-0.1,0.6-0.3,0.9-0.4l0.9-0.4c0.9-0.4,1.3-1.1,1.6-1.3
		h0.3c0.7,0,0.8,0.1,0.4,0.4c-0.3,0.1-0.2,0.3-0.2,0.4c0,0.1-0.2,0.4-0.3,0.4c-0.3,0-0.2,0.1-0.5,0.4c0,0.1,0,0.3-0.2,0.3
		s-0.3,0.4-0.7,0.5c-0.3,0.1-0.4,0.1-0.4,0.1c0,0-0.1,0-0.1,0c-0.3,0-0.8,0.4-1.4,0.5c-0.7,0.3-1.4,0.5-2,0.7
		c-0.1,0.2-0.3,0.3-0.6,0.3c-0.2,0-0.7-0.1-1,0.1c-0.2,0.1-0.4,0.3-0.6,0.3c-0.4,0-1.3,1.8-1.1,2.3l-0.2,0.1c-0.2,0-0.2,0.3-0.4,0.5
		c0,0.3-0.2,1.1-0.4,1.6c-0.3,1-0.8,2.8-0.8,3.4c0.2,0.3,0,0.7-0.2,1.2c-0.2,1-0.4,1.5,0,1.3l0.1,0.1c0,0.1,0.1,0.3,0.1,0.5
		c0,0.7-0.2,0.7-0.8,0.7c-0.1,0-0.3,0.3-0.5,0.8c-0.4,0.3-0.6,0.8-0.8,0.9c0,0.2-0.4,0.5-0.4,0.8c-0.3,0.3-0.5,0.7-0.7,1
		c-0.3,0.9-5.4,6.3-8.8,3.4c-2.5-0.9-2.8-1.6-4.2-3.1c-1.5-1.8-2.9-3.6-2.9-3.8c-0.1-0.1-0.2-0.3-0.3-0.4c-0.1-0.2-0.3-0.5-0.3-0.7
		c-1-1.7-1.6-4-1.8-6.3v-2.1L213,43c0-0.4,0.1-1,0.1-1.7c0.2-4.7,0.1-4.8,1.2-7.1c0.4-1.2,1-2.5,1.1-2.9c0.2-0.3,0.5-1,0.5-1.2
		c0.3-0.3,1.3-0.8,2.3-0.7c0.4,0.3,1.3,0.2,2.2,0.4c1,0.1,1.9,0.3,2.5,0.7c0.2,0.1,0.5,0.2,0.7,0.2c0.1,0,0.2,0.1,0.3,0.1
		c0.3,0,0.2-0.8,0.2-1.9c0.2-4.3,0.3-4.3,1.7-5.8c0.3-0.4,0.4-0.5,0.4-0.7c0-0.5,0.2-0.7,0.6-0.3c0.4,0.3,0.5,0.3,0.4,0l0.1-0.1
		c0.1,0,0.3-0.1,0.6-0.1H228.8z M228.5,35.3c-0.1,0-0.3,0.1-0.3,0.1l-1.7,0.1l-0.1,0.3c-0.1,0.2-0.1,0.5-0.3,0.7
		c-0.3,0.5-0.6,1.3-0.8,2c-0.4,0.4-0.6,1.1-0.6,1.3l-0.2,0.5l-0.4,1.2c-1.2,3.1-1.4,5.4-0.8,8.4c0.3,0.6,0.6,1.4,0.6,1.8
		c0.5,1.1,3.7,4.4,4.2,4.4c0.8,0,3-3.6,3.5-5.5c0.3-1,0.6-1.8,0.6-2c0.4-0.7,1.2-3.1,1.6-4.6c0.2-0.8,0.4-1.9,0.5-2.6
		c0.4-1.3,0.4-1.8,0.2-1.8c-0.4,0-2.7-1.6-2.7-1.8c0-0.2-0.2-0.2-0.4-0.2c-0.2,0.2-0.2,0-0.2-0.1c0.2-0.3,0.2-0.2,0-0.2
		c-0.2,0.2-1-0.1-1-0.5c0-0.1,0-0.1-0.1-0.1h-0.1c-0.1,0-0.1,0-0.1,0.1c0,0,0,0,0,0c0,0.5-0.4,0.1-0.4-0.1c0-0.3,0-0.6-0.2-0.3
		c-0.4,0-0.3-0.2-0.6-0.5c0-0.3,0-0.5-0.1-0.5C228.6,35.2,228.6,35.2,228.5,35.3z M244.7,36.9C244.5,36.9,244.6,36.8,244.7,36.9
		L244.7,36.9z M244.7,36.8C244.8,36.8,244.8,36.8,244.7,36.8L244.7,36.8z"/>
	<path class="st0" d="M242.1,22.2c0.8,0,2.7,0.4,3.3,0.5c1.7,0.7,1.9,1.6,2.1,3.8c0.4,2.1,0,5.7-0.7,7.4c-0.1,0.4-0.1,0.8-0.2,1.1
		l-0.1,0.5c0,0.3,1.3,0.8,1.5,0.6c0.1-0.3,0.7-0.2,1.2-0.2c0.8,0,2.1-0.3,2.1-0.5c0-0.2,1.7-1.9,1.9-1.9c0.1,0,3.1,1.6,3.5,2
		c0.3,0.2,0.7,0.7,0.8,1c0.2,0.3,0.5,0.8,0.8,1.2c0.2,0.3,0.7,1.1,1,1.9c0.7,1.2,0.7,1.3,0.5,2.1c0,0.9-0.1,1-0.8,1.5
		c-0.7,0.5-1,0.7-1.3,0.5c-0.4-0.1-0.5,0-0.7,1.2v0.7c0.3-0.2,0.2-0.2,0.3-0.2c0.3,0,0,1.8-0.3,2c0,0.1-0.1,1-0.3,2.7
		c-0.1,1.3-0.4,2.8-0.4,3.3c-0.1,0.5-0.1,0.9,0,1.1l0.1,0.1c0,0.1,0.1,0.1,0.1,0.2c0,0.2,0,0.3,0.1,0.5c0,0.1,0,0.2,0.1,0.2
		c0.3,0.2,0.3,0.3,0.2,1c-0.3,1.4-0.3,4.5,0,5.6c0.1,0.1,0.1,0.3,0,0.3c-0.1,0-0.2-0.2-0.2-0.5c0,0,0-0.1-0.1-0.2l-0.1-0.1
		c-0.3-0.3-0.2-0.4-0.4-0.7c0-0.3-0.1-0.8-0.1-1c-0.2-0.3-0.2-0.7,0-1v-2.6c0.1-0.5,0.1-0.9,0.1-1.3c-0.1-0.3-0.1-0.2-0.3,0.8
		c-0.1,0.8-0.1,1.7-0.1,2.1c0,0.4,0,1.1-0.2,1.4c-0.2,2.5-0.1,4.4,0,4.2c0,0,0.1,0,0.1,0c0.1,0.1,0.1,0.2,0.1,0.3
		c0,0.2,0,0.3,0.1,0.5c0.3,0.1,0.3,0.1,0.2-0.3c0-0.5,0-0.5,0.1-0.2l0.2,0.3l0.1,0.2c0,0.1,0,0.1,0.1,0c0-0.2,0-0.4,0.1-0.6
		c1.2-1.6,3-5.1,4.2-7.8c0.1-0.5,0.5-0.9,0.7-1.3l1.2-2.5c1.1-2.1,2.5-4.9,2.7-5.4c0.2-0.3,0.2-0.3-0.1-0.2c-0.3,0-0.4,0.2-0.4,0
		c-0.1,0,0.4-0.7,0.7-0.8c0.3-0.2,1.3-1.9,1.3-2.4c0-0.3,1-3.5,1.3-4.4c0.6-0.7,1.7-2.2,2-2.2c0.2,0,0.2,0.7-0.2,1.2
		c-0.1,0.3-0.5,1-0.7,1.3c-0.2,0.5-0.5,1.2-0.7,1.7c-0.2,0.3-0.4,1.2-0.5,1.5c-0.1,1.6-0.6,3.4-1.1,4.4c-0.4,0.7-0.9,2-1.6,3.3
		l-0.6,1.3c-0.7,1.5-1.2,2.7-1.1,2.9c0,0.2,0,0.4-0.1,0.5l-0.1,0.2l-0.2,0.3c0,0.3-0.1,0.5-0.3,0.5c-0.1,0-0.2-0.1-0.2-0.3
		c0.2-0.3,0-0.3-0.2-0.3c-0.1,0.1-0.3,0.1-0.3,0.3c0,0.1-0.3,0.6-0.7,1.3c-0.3,0.7-0.5,1.6-0.7,1.7c0,0.3-0.3,1-0.7,1.7
		c-0.3,0.9-0.7,1.7-0.8,2.9c-0.2,1-0.3,2-0.5,2.3c-0.3,1,0.9,2.3-0.3,2.7c-0.4,0.1-1.2,0.5-1.5,0.7c-1.9,1.2-2.1,1.3-3.3,1.3
		c-1.1-0.2-1.6-0.5-3.4-2c-0.8-1.1-1-1.2-0.8-1.4c0.3-0.1,0.4-0.1,0.2-0.8c-0.3-0.3-0.2-0.7-0.2-0.8l0.1,0.1c0,0.1,0.1,0.1,0.1,0.2
		c0.1,0.3,0.1,0.5,0.3,0.5c0.2,0-0.3-1.1-0.7-1.3c0-0.3-0.2-0.5-0.2-0.7c0-0.9-0.6-2.5-0.8-2.4c0,0,0,0-0.1,0c0,0-0.1,0.1-0.1,0.1
		v0.2c-0.1,0.1-0.1-0.2-0.4-0.5c0-0.1,0-0.3-0.1-0.5L248,61c-0.3,0.1-0.5-1.3-0.7-3.7c0-2.7,0-4.4,0.5-5.9c0.6-1.3,1.1-4.4,1-4.4
		l-0.2,0.4c-0.1,0.5-0.3,0.3-0.3-0.4c0-1.2,0.5-4.2,1-6.4c0.7-2.7,0.6-2.7,0.4-2.8c-0.1,0-0.4,0.1-0.8,0.3c-0.5,0.5-0.6,0.5-2.7,0.5
		c-1.7-0.1-2-0.2-2.8-0.5c-1.2-0.5-1.3-0.5-2,0.3c-0.2,0.1-0.3,0.3-0.5,0.3c0-0.1,0-0.3,0.3-0.5c0.3-0.4,0.3-0.7,0.2-0.7
		c-0.1,0-0.2-0.1-0.2-0.4c0.1-0.1,0.1-0.1,0.1-0.2l-0.1-0.1c-0.1,0-0.7-0.5-1.3-1.2c-0.7-0.7-1.3-1.2-1.5-1.2l-0.7-2.2
		c-0.5-1-0.5-1.6-0.2-3.9c0.4-1.9,0.8-3.3,1.5-4.6c0.5-0.7,1-1.2,2.5-1.7H242.1z M245.3,26.3c-0.4,0-1.3,0.8-1.9,1.6
		c-0.3,0.8-0.5,1.3-0.5,2.4c0,0.9-0.4,1.6,0.3,2.6l2,2l0.7-1.3c0.7-3.8,1.6-5-0.5-7.3H245.3z M253.3,62.5c-0.5,0.3-0.5,0.8-0.1,1.9
		c0.1,0.6,0.3,0.9,0.4,0.9c0.1,0.1,0.4,0,0.1-0.2c-0.1-0.1-0.1-0.3-0.2-0.5l-0.1-0.4c0.2,0,0.5,0.3,0.8,0.7c0.5,0.5,0.9,0.8,1,0.8
		c0.1,0,0-0.8-0.3-1.3c-0.1-0.3-0.1-0.7-0.1-0.8c0.1-0.3,0.2-0.2-0.2-0.2c-0.1,0.3-0.1,0-0.3-0.4c0-0.4-0.2-0.7-0.5-0.7
		C253.8,62.1,253.6,62.3,253.3,62.5z M253,61.1c0.3-0.1,0.3-0.5,0-0.7V61.1z"/>
	<path class="st0" d="M280.7,0.3c0.4,0.1,0.8,0.3,1.2,0.3c0.3,0,0.7,0.1,1.1,0.4c0.2,0,0.5,0.1,0.9,0.1c0.3,0,0.5,0,0.7,0.3
		c0.1,0.1,0.5,0.7,1,1c0.8,0.8,1.2,1.4,1.2,2.1c0,0.3,0.1,0.5,0.2,0.5c0,0,0,0,0.1,0c0,0,0,0.1-0.1,0.1c0,0.1,0,0.5,0.2,1.1
		c0.4,0.7,0.4,0.9,0.2,1.9c0,0.7-0.2,2.5-0.2,3.9c0,3.1,0,3.4-1.2,5.8c-0.1,0.3-0.1,0.7-0.1,0.8c0,0.5-1.9,3.2-2.3,3.2
		c-0.2,0-0.2,0-0.2,0.3c0.2,0.3-0.3,1.3-1.1,2.1c-0.3,0.5-1,1.3-1.6,1.8c-0.4,0.6-0.9,1.3-1.2,1.4c-0.9,0.7-1.2,2.3-1.1,4.9
		c0,1.1,0.1,1.9,0.4,2.1c0,0.1,0.1,0.4,0.1,0.6c0,0.8,0.5,3.3,0.7,3.5c-0.2-0.3,0-1,0.3-1L280,38c0.1,0.1,0.1,0.3,0.1,0.4
		c0,0.7-0.3,0.8-0.4,0.8c-0.3,0-0.3,0,0,0.3c0.1,0.4,0.1,0.4,0.1,0.7c-0.1,0.2-0.1,0.3-0.1,0.5c0.4,0.2,0.7,1.5,0.7,2.9
		c0.3,0.8,0.2,1.3,0.6,1.5c0.3,0.4,0.9,2.3,0.7,2.4c-0.1,0-0.1,0-0.1,0.1c0,0,0,0.1,0,0.1c0,0,0,0,0.1-0.1c0.2,0,1.5,3.4,2,5.5
		c0.3,1.1,0.7,2.3,1.1,2.6c0.2,0.2,0.7,0.8,1.1,1.5c1,1.6,1.2,1.8,1.7,1.1c0.2-0.3,0.3-0.6,0.3-0.8c0-0.1,0.1-0.3,0.1-0.4
		c0.1-0.3,0.3-0.6,0.6-1.1c1.1-2.1,1.4-3.5,2.5-8.1c0.3-1.9,2-9.8,2-10.3c0-0.7,0.3-0.4,0.5,0.3c0.2,0.5-0.7,5.3-0.9,7.1
		c0,1.8,0,2.3,0.2,2.4c0.1,0.1,0.1,0.4-0.4,1.4c-0.2,0.2-0.3,0.8-0.5,1.3c0,0.5-0.4,1-0.4,1.3c-0.1,0.1-0.1,0.4-0.1,0.8
		c0,0.1-0.2,0.7-0.2,0.8c-0.1,0-0.3,0.7-0.5,1.3c0,0.7-0.5,2.3-0.9,3.6c-0.3,0.7-0.4,1.2-0.5,1.7c-0.1,0.3-0.1,0.5-0.1,0.7
		c0,0.2,0,0.5-0.4,0.7c-0.4,0.3-1.2,1.6-1.2,1.8c0,0.5-1.1,1.5-1.7,1.7c-1.8,1.1-3.7,0.9-5.6-0.4c-1.3-0.8-3.1-2.3-3.8-3.5
		c-1.6-2.6-2.3-3.9-2.8-5.1c-0.3-0.8-0.8-2.4-1.2-3.6c-0.5-1-0.9-2.4-1.2-3.1c-0.4-1.1-0.3-1.3-0.7-1.3s-0.4,0.1-0.5-2.6
		c0-0.5-0.1-1.2-0.3-1.5c-0.1-0.5-0.5-1.3-0.5-2l-0.2-0.9l-0.1-0.4h-0.4c-0.2,0.1-0.2,0.3-0.2,0.6c0,0.1-0.1,0.2-0.1,0.3
		c0,0.1,0,0.1-0.1,0.2c-0.2,0-0.3-0.9-0.3-1.7c0-2.5,0-2.7,0.3-3.2c0.6-0.9,0.7-2.9,0-2.9c-0.3,0-0.3-0.2,0-0.5
		c0.2-0.1,0.2-0.3,0-0.3c-0.3-0.1-0.3-0.9-0.2-1.6c0.2-0.5,0-1.3-0.1-1.1c-0.2,0.1-0.2,0.5-0.2,0.8c0,0.3-0.1,0.4-0.1,0.6l-0.1,0.2
		c-0.1,0-0.2-0.4,0-4.4c0-1.5,0.2-2.7,0.5-3.7c0.2-0.7,0.4-1.5,0.4-1.6s0-0.5,0.2-0.8c0.2-0.2,0.5-1.1,0.8-2.1
		c0.3-0.9,0.9-2.4,1.3-3.4c1.6-4.2,2.3-6,2.1-6.3c0-0.4,0.5-2,1.2-2.8c0.3-0.3,0.7-1.1,1.1-1.6c0.7-1.3,1.8-3,2.5-3.6l0.5-0.4
		l0.2-0.2c0-0.2,0.2-0.2,0.5-0.3c0.1,0,0.3,0,0.5-0.1l0.2-0.1c0.2-0.1,0.4-0.1,0.5-0.1S280.3,0.1,280.7,0.3z M285.1,9.9l-0.2,0.1
		c-0.2,0-0.7,1-1.6,2.6c-0.5,1.1-2.3,6.2-2.3,6.5c0,0.2-0.2,0.9-0.6,1.8c-0.5,1.6-0.8,3.1-0.8,3.6c0,0.3,0.1,0.3,0.5-0.3
		c0.3-0.4,0.9-0.8,1-1.3c0.2-0.5,0.5-1.1,0.9-1.5c0.3-0.3,0.7-1.2,0.9-1.8c0.3-0.5,0.5-1.2,0.7-1.3c0-0.1,0.2-0.6,0.4-1.1
		c0.1-0.5,0.1-0.8,0.4-0.8c0.3,0.4,0.7-2.3,0.8-6c0-0.8,0.2-1.1,0.6-1.8c0-0.2,0.1-0.3,0-0.3C285.6,8.3,285.1,9.6,285.1,9.9z"/>
	<path class="st0" d="M315.3,0.5c0.5,0,1.1,0.3,1.7,0.9c0.5,0.3,0.8,0.4,0.5,0.1c0-0.3,0.4-0.4,1.1-0.1c1.3,0,2.5,0.6,3.3,1.6
		c0.8,0.9,1.1,1.1,0.5,1.4c-0.3,0.1-0.8-0.2-0.8-0.5c0-0.2-0.3-0.4-0.9-0.9c-0.7-0.8-1-1-1.5-1c-0.7,0-0.9,0.2-0.6,0.5
		c0.6,0.4,0.9,0.6,1.2,0.4c0.5-0.1,1.5,0.5,1.8,1.2c0.1,0.5,0.5,1,0.8,1.3l0.4,0.5l-0.1-0.5c-0.3-0.5-0.2-0.5,0.1-0.3
		c0.4,0.3,0.4,0.3,0.3,0.6c-0.1,0.1-0.2,0.3-0.3,0.4c0,0,0,0.1,0,0.1c0.3,0.2,0.4,0.2,0.3,0c0-0.2,0.1-0.3,0.1-0.5
		c0.3,0,0.5,0.8,0.1,1.1c-0.1,0.4-0.1,0.4,0,0.5c0.2,0.2,0.4,0.3,0.2,0.5c-0.2,0.1-0.2,0.6-0.2,0.9c0.2,1.5,0,1.4,0.4,1.2V9.3V9.2
		c0.3-0.1,0.4,1,0.3,2.3c-0.1,1.6-0.1,4.8,0,5c0,0.1,0,0.3-0.3,0.4c-0.4,0.1-0.4,0.1,0,0.3c0.3,0.3,0.3,0.5,0,0.5
		c-0.2-0.3-0.4,0-0.4,0.1c0,0.3,0,0.3-0.1,1.1c-0.1,0.1-0.4,0.7-0.1,0.8c0,0.3,0,0.5-0.6,0.7c-0.1,0.3-0.5,0.7-0.5,0.9
		c-0.1,0.8-0.4,1.8-0.7,2.7c-0.2,0.5-0.4,1.2-0.4,1.5c0,0.2,0,0.4-0.1,0.6c0,0.1,0,0.2-0.1,0.2c-0.1,0-0.2,0.1-0.2,0.3v0.6
		c-0.2,0.1-0.4,0.7-0.5,1.3c-0.1,0.5-0.3,1.1-0.5,1.2l-0.1,0.3c-0.1,0.2-0.1,0.5-0.2,0.8c-0.4,0.7-0.6,1.3-0.8,1.7
		c-1.2,2-1.5,2.4-1.3,3.8c0,0.8,0.1,2.5,0.1,4.1c0.2,1.6,0.3,3.1,0.3,3.7c0.3,0.7,0.3,1.1,0,1.2v0.9c0,0.8,0,1-0.1,1.1
		c-0.3,0.4-0.7,3-0.4,3.1c0.1,0.3,0.1,0.5,0.1,0.7v0.4l-0.1-0.4c-0.3-0.5-0.2-0.5-0.3-0.2v1.3c0,0.7,0,1.1-0.2,1c0-0.1,0-0.1-0.1,0
		c0,0.3,0.1,1,0.3,1.1c0,0.2,0.3,0.2,0,0.2c0,0.3,0.4,1.3,0.5,1.5c0.2,0.1,0.3,0.4,0.6,0.5c0,0.4,0.1,0.4,0.5,0.4c0.1,0,0.1,0,0.1,0
		c0,0.3,0,0.4,0.1,0.7l0.1,0.4c0.1,0,0.2,0,0.6,0.1c0.3,0.3,0.3,0.3,0.1,0c-0.2-0.3-0.1-0.4,0.1-0.4c0,0.1,0.1,0.1,0.2,0.2
		c0.1,0.2,0.3,0.3,0.3,0.4c0.3,0.5,0.5,0.5,0.3,0.9c-0.3,0.4-0.3,0.4,0,0.7c0.2,0.1,0.2,0.1,0,0.3c-0.3,0-0.3,0.2,0.2,0.5
		c0.3,0.3,0.6,0.5,0.8,0.1c0-0.1,0.3-0.3,0.4-0.3c0.2-0.1,0.4-0.3,0.7-0.6c0.3-0.3,0.5-0.8,0.7-0.9c0.5-0.6,2.8-4.7,2.8-5.2
		c0-0.3,0-0.5,0.4-0.8c1.1-2.4,2.2-4.8,2.4-5.8c0.3-1.1,1.2-4.4,2.4-7.8c0.5-1.5,0.9-2.3,1.3-2.3c0.1,0,0,0.4-0.3,1.1
		c0,0.4-0.1,0.7-0.3,0.7c0,0,0,0-0.1,0.1c0,0,0,0.2,0,0.4c0,0.1,0,0.6-0.1,0.9c-0.5,1-0.9,2.3-0.9,4.2c0,1.1-0.1,1.6-0.3,1.8
		c-0.1,0.3-0.3,0.6-0.3,0.9c0,0.3-0.1,0.6-0.1,0.9c0,0.2-0.1,0.3-0.3,0.3l-0.1-0.2c0-0.2,0-0.4,0.1-0.7v-0.8l-0.4,0.6
		c-0.2,0.4-0.2,0.8-0.3,1c0,0.3,0,0.7-0.3,1.3c-0.2,0.3-0.3,1.1-0.4,1.7c0,1-0.6,1.7-1.5,2.5c-0.1,0.4-0.5,0.9-0.7,1.6
		c-0.1,0.5-0.6,1.6-0.8,2c-0.1,0.3-0.2,0.9-0.2,1c0,0.3-0.2,0.5-0.3,0.7c-0.3,0.5-0.7,0.8-1.5,2.7c-0.8,2-1.5,2.8-2.9,3.1
		c-0.8,0.3-1.1,0.4-2.4,0.1c-1.1-0.1-1.3-0.2-1.9-0.8c-1.3-1.1-2-1.9-2-2c-0.1-0.1-0.1-0.3-0.3-0.4c-0.1-0.3-0.3-0.5-0.5-0.8
		c-0.3-0.3-0.4-0.7-0.6-0.9l-0.3-0.4c0-0.1-0.1-0.5-0.3-0.7c-1.1-1.2-2.4-5.1-2.8-7.8c-0.2-1.6-0.4-2-0.5-2c0,0,0,0.1,0,0.1
		c0,0,0,0.1,0,0.3c0,0,0,0,0,0c-0.1,0-0.1,0-0.3,0c-0.1,0-0.3,0.3-0.5,0.6c-0.4,0.5-0.5,0.8-0.4,0.8c0.4,0.2-1.7,2.9-2.2,2.9
		c-0.2,0-0.2,0.3-0.2,0.4c0.2,0.2-0.5,0.9-0.9,1.1c-0.3,0.1-0.7,0.5-1.1,0.8c-0.1,0.4-1,1.4-1.8,2.4c-2,1.9-2.3,2.1-4.1,1.8
		c-1.8-0.4-3.3-1.6-3.1-2.5c0-0.4,0-0.6-0.3-0.9c-0.1-0.3-0.2-0.3-0.3-0.4l-0.1-0.1c-0.3,0.1-1-1-1-1.5c0-0.3,0-0.6-0.1-0.7
		c-0.1-0.4-0.1-0.9-0.1-1.5c0-0.7-0.1-1.3-0.4-1.6l-0.3-0.7v0.3l-0.2,0.5l-0.1-0.3c-0.8-1.6-0.1-7.8,1.4-12.5c1.3-3.8,3.6-7.2,6-9
		c0.3-0.2,0.9-0.7,1.3-0.8c0.5-0.3,0.6-0.4,1.2-0.3c0.6,0,0.8,0.1,2.7,0.9c0.6,0.3,1.5,0.5,1.8,0.6c1,0.1,1.7,0.4,2.4,1
		c0,0.1,0.1,0.2,0.3,0.3l0.2,0.1c0-0.3,0-0.7,0-1c0-0.6,0.1-1.5,0.3-2.5c0-3.5,0.2-7.6,0.6-9.4c0.1-0.5,0.1-1.3,0.1-1.7
		c-0.1-1.6-0.1-2.7,0.2-4.4c0.6-3.5,1.3-6,2.8-8.2c0.1-0.4,0.4-0.6,0.4-0.8s0.3-0.5,0.5-0.8c0.4-0.3,0.7-0.7,0.7-0.9
		c0-0.1,0.1-0.1,0.4-0.1c0.2,0,0.4,0,0.5-0.5c0-0.1,0.4-0.4,0.5-0.4V0.5z M305.1,33c-0.3,0-0.9,0.4-1.1,0.8c0,0.4-0.4,0.9-0.5,1.2
		c-0.4,0.6-0.4,0.8-0.1,1.1c0.1,0.5,0.1,0.7-0.3,1c-0.3,0.3-0.5,0.4-0.7,0.4c-0.1,0-0.3,0-0.3,0.1c0,0.3,0,0.2,0.2,0.2
		c0,0,0,0,0.1,0h0v0c0,0.3,0,0.3-0.1,0.3s-0.1,0-0.2,0c0,0,0,0-0.1,0c0,0.3,0,0.4-0.3,0.7c-0.2,0.1-0.7,0.9-1.1,1.6
		c-0.7,0.9-0.8,1.3-0.8,2c0,0.4,0,1.1-0.2,1.4c-0.8,1.9-1.6,4.8-1.8,6.1c0,0.6,0,1.3,0.2,1.3c0.1,0.1,0.9,2.1,0.9,2.8
		c0,0.1,0,0.7,0.2,0.9v0.8c-0.3,0.2-0.5-0.4-0.6-0.9c-0.5-0.8-0.9-0.8-0.5,0.2c0.3,0.4,0.5,0.9,0.6,0.9v0.4c0,0.1-0.1,0.1-0.5-0.3
		c-0.3-0.3-0.4-0.3-0.4-0.1c0,0.3,0.4,0.9,0.9,0.9c0.1,0,0.1,0.2,0.3,0.2c0,0.1,0,0.1,0.1,0c0.4-0.3,0.4-0.2,0.2-0.2
		c-0.2,0-0.3-0.1-0.3-0.4c0-0.1,0.1-0.1,0.3-0.1c0.1,0.1,0.1,0.1,0.1-0.1c0-0.2,0-0.3,0.1-0.3c0.4-0.2,0.4,0,0.4,0.1
		c-0.1,0.1-0.1,0.1-0.1,0.1c0,0,0,0,0.1,0c0.1-0.2,0.3-0.2,0.4,0c0.4,0.1,0.5,0,0.8-0.2c0.9-0.4,1.6-1.3,1.6-1.5
		c0-0.2,0.1-0.3,0.3-0.5c0.1,0,0.4-0.4,0.8-0.8c0.3-0.3,0.8-1.2,1.4-1.7c0.4-0.6,1.3-1.9,2.2-2.9l1.2-1.8v-3.1c0-1,0-1.7,0.1-2.4
		l0.1-1.1c0.2,0,0-1.9-0.2-2.7c0-0.5,0-0.5-0.3-0.1c0,0.2,0,0.3,0,0.3s0-0.1-0.1-0.3c0-0.4-0.3-1.1-0.3-1.7c0-0.6-0.1-1.2-0.2-1.2
		l-0.3,0.2c0,0.5-0.3,0.8-0.9,0.9c-0.6,0-0.6,0-0.7-0.8c-0.3-0.8-0.5-1.6-0.7-1.9H305.1z M319.5,13.3c-0.3,1-0.7,2.1-0.8,2.5
		c-0.9,3-1.6,7.9-1.9,11.2v2.4v2.3v1.6l0.7-0.7c0.5-1,1.3-3.7,2.2-6.6c0.3-1.3,0.8-2.8,0.9-3.4c0.5-1.3,1-3.8,1.3-7
		c0.1-0.8,0.2-1.7,0.5-2.2c0.1-1,0.3-5.2,0.1-5.7c-0.1-0.1-0.3-0.4-0.5-0.9c-0.1-0.3-0.3-0.7-0.4-0.7
		C321.4,6.2,320.9,7.4,319.5,13.3z"/>
	<path class="st0" d="M363.2,30.4c0,0.2-0.4,1.1-0.4,1.9c-0.5,2.2-1.1,3.7-1.6,5l-0.9,2c-0.6,1.3-3.1,4.2-3.8,4.2l-0.1,0.1
		c-0.1,0-0.2,0.1-0.2,0.1c-0.6,0.8-2.5,1.6-4.4,2.2l-2,0.5l-0.9-0.4c-0.5-0.4-1.3-0.7-1.5-0.9c-0.1-0.2-0.2-0.3-0.3-0.4
		c-0.1-0.1-0.1-0.1-0.2-0.1c-0.2,0-0.5-0.7-0.9-1.6c-0.8-1.3-0.9-1.9-0.9-3c0-1.3,0-1.5,0.4-1.8c0.4-0.2,0.8-0.4,0.9-0.4
		c0.3-0.2,0.5,0,0.5,0.7c0,0.4,0.2,0.7,0.4,1.1c0.4,0.3,0.4,0.3,0.5,0c0.3-0.2,0.2-0.2,0.4,0.3c0.5,0.8,0.7,0.8,1.5,0
		c0.3-0.3,0.7-0.7,0.9-0.7c0.2,0,0.9-0.9,1.4-2c0.8-1.7,0.9-2.2,1.1-2.8c0.4-0.8,0.7-2.3,1.1-4.4c0.3-2.8-0.3-14.2-1.1-15.1
		c-0.6-0.7-0.7-0.9-3.3-0.2c-0.1,0-0.3,0.2-0.3,0.4c0,0.4-0.1,0.4-0.5,0.4c-0.5,0.1-1.1,0.5-1.1,0.9c0,0.1-0.1,0.1-0.1,0.1
		c0,0,0,0-0.1,0c-0.4,0-1.8,2.2-2.4,3.7c-1.7,4.4-2,4.8-1.8,5c0.2,0.4,0.2,1,0,1c-0.4,0-0.9,0.5-0.9,1.1c0,0.2-0.2,0.7-0.4,0.9
		c-0.5,1.1-0.9,2.9-0.7,4.1c0.1,0.5,0.3,1.8,0.5,2.7c0,1,0.4,2.4,0.5,3.3c0.9,3.9,0.9,14,0,15.7c-0.2,0.3-0.4,0.9-0.4,1.3
		c0,0,0-0.1-0.1-0.1c0,0,0,0-0.1,0c0,0.2-0.2,0.7-0.4,1.3c-0.1,0.8-0.1,1.3,0,1.6c0.2,0.6,0,0.7,0,1.1c-0.1,0.2-0.3,0.3-0.1,0.6
		c0,0.1,0,0.1,0,0.2c0,0.1-0.1,0.2-0.1,0.2c-0.2,0.3-0.8,3-0.8,3.9c0,0.8-0.5,1.7-1.1,1.9c-0.2,0-0.9,0.5-1.6,1.3
		c-0.8,0.8-1.5,1.3-2,1.6c-0.9,0.4-1.2,0.4-2.5,0.4c-1.6-0.2-1.8-0.1-2.2-0.9c-0.5-0.7-0.4-1.1,0.2-2c0.3-0.5,0.5-1,0.5-1.5
		c0-0.6,0.2-1.5,0.2-2.1c0.4-2.9,0.6-9.4,0-12.9c0-1.3-0.2-3.1-0.3-4c0-1.3-0.9-7.9-1.3-10.9c-0.2-1.1-0.5-4.4-1.1-9.2
		c0-1.9-0.3-3.5-0.6-3.7c0-0.2-0.2-1.2-0.3-2.4c0-1.1-0.2-2.4-0.4-3.1c-0.4-0.9-0.4-1.1,0-1.5c0.4-0.6,1.4-0.9,3.5-1.3l1.4-0.2
		l1.3,0.6c0.7,0.3,1.6,0.9,2,1.3c1.1,1.2,2.3,5,2.9,8.3c0.2,0.7,0.4,1.9,0.5,2.4l0.3,0.9l0.2-0.5c0.8-1.7,1.8-3.7,2.4-4.7
		c0.4-0.7,0.9-1.6,1.1-2c0.6-1.3,2.3-3.8,3.8-5.2c1.9-1.9,2.7-2,5.1-2c2,0,2.7,0.2,4.2,1.3c0.5,0.5,1.2,0.9,1.6,1.1
		c0.6,0.4,2,1.8,2.4,2.8c1.6,2.8,2.3,4.6,2.5,5.5c0.2,0.6,0,1.9,0,3.2c-0.2,1.5-0.2,2.4,0,2.7V30.4z"/>
	<path class="st0" d="M377.2,1.1c0.5,0,1.2,0.1,1.7,0.2c1.2,0,2,0.9,1.9,1.5c0,0.5,0,0.5,0.3,0.6c0.9,0.1,1.2,2.3,0.7,4
		c-0.2,0.6-0.2,1,0,1.3c0.2,0.4,0,1.4-0.4,2.3c-0.1,0.5-0.1,1-0.1,1.6c-0.2,0.5-0.2,1.3-0.4,1.7c0,0.6-0.1,1.2-0.1,1.5
		c0,0.2-0.1,0.3-0.1,0.4l-0.1,0.1c-0.1,0-0.1,0.3-0.1,0.6c-0.2,1.5-1.9,5.7-3.4,7.8c-0.5,0.7-0.5,1.2-0.4,1.2c0,0,0.1,0,0.1,0.1
		c0,0,0,0,0,0.1c0,0,0,0.1-0.1,0.1c-0.2-0.1-0.5,0.5-0.4,0.6h0.1c0.1,0,0.1,0,0.1-0.1c0,0,0,0,0-0.1c0,0,0-0.1,0.1-0.1
		c0.1,0,0.1,0.6-0.2,0.8l-0.2,0.1c-0.1,0-0.3,0.1-0.3,0.1c-0.3,0-0.3,0.1-0.5,0.7c-0.3,0.5-1,1.7-1.5,2c-0.3,0.3-0.9,1.3-0.9,2.1
		c0,0.4,0,0.7-0.5,1c-0.2,0.3-0.5,0.6-0.5,0.8c0,0.6-0.1,1.6-0.3,2.2c-0.1,0.7-0.1,1.9,0.2,2.3c0.1,0.4,0.1,0.4,0.7-0.4
		c1.1-1.5,3.4-3.5,5.4-4.6c0.4-0.2,0.8-0.4,1-0.7c0.1-0.1,0.3-0.2,0.4-0.4c0-0.2,1.7-0.3,2.7,0c1.6,0.3,2,0.6,2.4,1.7
		c0.1,0.5,0.5,1.2,0.8,1.5c0.7,0.5,1.1,1.5,0.9,2.2c0,0.3-0.1,1-0.1,1.7c0,0.5-0.2,1.3-0.2,1.5c-0.1,0.4-0.3,0.9-0.3,1.5l-1,7
		c-0.6,2.9-0.4,8.4,0.3,9.1c0.1,0.1,0.1,0.2,0.1,0.3c0,0.1,0,0.1,0,0.1c0,0.1,0,0.1,0.1,0.2l0.1,0.1c0.3,0,1.2-1.1,2-2.6
		c0.5-0.8,1.4-2,2.1-2.9c0.5-0.7,1-1.6,1.2-1.9c0.2-0.3,0.5-0.8,0.8-1.3c1.1-1.2,2.6-3.7,2.8-4.3c0.2-0.4,0.5-0.9,0.8-1.5
		c0.1-0.4,0.6-1.6,1.2-2.4c0.4-1,1-2.6,1.4-3.5c0.5-1,1-2,1-2.3c0.2-0.4,0.3-0.7,0.5-0.9c0.4-0.4,0.5-0.1,0.4,1
		c-0.2,1.1,0,1.4,0.1,1.7c0.5,0.4,0.5,0.4,0.2,0.8c0,0.1-0.2,0.3-0.3,0.3c-0.1,0-0.2,0.3-0.2,0.7c0,1.2-1,2.8-1.7,2.8
		c-0.3,0-0.4,0-0.4,0.1c0,0.1,0.2,0.1,0.4,0c0.1,0,0.1,0,0.1,0.3c0,0.1,0,0.1-0.1,0.1c-0.4-0.1-0.9,0.7-0.9,1.7
		c0,0.8-0.3,1.7-0.5,1.7c-0.2,0-0.4,0.1-0.5,0.5c-0.3,0.3-0.5,0.7-0.9,0.8c-0.1,0.3-0.4,0.7-0.4,1.1c0,0.4-0.4,0.8-0.9,1.4
		c-0.3,0.4-0.9,0.9-0.9,1.1c0,0.2-0.1,0.5-0.3,0.5c-1,1-1.5,1.5-1.7,2.1c-0.3,0.9-1.2,2.2-1.5,2.2s-0.9,0.9-0.9,1.1
		c0.2,0.3,0,0.3-0.1,0.3c-0.4,0-0.5,0.1-0.8,0.3c0,0.3-0.1,0.4-0.3,0.4c-0.2,0.1-0.5,0.4-0.7,0.9c-0.7,1-1,1.6-1.4,1.6
		c-0.2,0-0.3,0.1-0.3,0.2c-0.4,0.5-1.2,1-2.1,1.2c-0.4,0.1-0.7,0.2-0.7,0.4c0,0.4,0,0.4-0.2,0.4c-0.1-0.2-0.3,0-0.3,0.1
		c-0.2,0.4-0.7,0.4-0.8,0c-0.2-0.1-0.2-0.3-0.2-0.1c-0.2,0.2-0.5,0.1-0.7,0c-0.1-0.4-0.5-0.4-0.8-0.2c-0.5,0.3-0.8,0-0.7-0.4
		c0.2-0.3,0.2-0.5-0.3-1.1c-0.4-0.4-0.9-1.1-1-1.6c-0.4-1.3-1-4.7-1-7c-0.2-2.9,0.5-8.8,1.4-12c0.5-1.5,0.7-1.9,0.7-2.4
		c0-0.1,0-0.7,0.2-1c0.1-0.4,0.3-1.3,0.3-1.7c0.2-1,0.2-0.9-0.2-0.8c-0.4,0.2-0.7,0.4-1,0.8c-0.2,0.3-0.4,0.4-0.5,0.5l-0.2,0.2
		c-0.3,0-2.8,3.2-3.5,4.5c-0.4,0.7-0.4,0.9-0.4,2.1c0,1.3-0.1,1.6-1,3.3c-0.1,0.3-0.3,0.9-0.3,1.3c0,1.7-0.5,4-1,4.1
		c-0.2,0.1-0.5,0.3-0.9,0.4c-0.1,0.1-0.5,0.3-0.7,0.3c-0.3-0.1-0.4,0-0.5,0.1c-0.7,0.7-1.8,0.5-3.2-0.4c-0.7-0.4-0.8-1.2-1.3-2.7
		c-0.3-0.9-0.4-2.1-0.5-2.5c-0.4-1.2-0.4-5.8-0.2-7.6c0.3-0.5,0.2-1.6,0.2-2.3c0-0.7,0.1-2.4,0.3-3.9c0.4-1.7,0.4-3.2,0.4-3.9
		c-0.1-0.9,0-1.8,0.2-2.9c0.1-1.1,0.5-1.9,0.5-2.2c0-0.1,0-0.4,0.1-0.7c0.1-0.1,0.1-0.4,0.1-1.2c-0.1-0.4-0.1-0.8-0.3-0.8v-0.3
		c0.3-0.3,0.3-0.4,0.1-0.3c-0.1,0-0.1-0.8,0-1.1l0.1-0.4c0.1-0.3,0.1-0.5,0.2-0.8c0.2-0.6,0.3-1.3,0.5-1.6c0.7-1.9,1-2.6,1.1-3.5
		c0.3-0.5,0.7-1.6,0.9-2.2c0.4-0.7,0.5-1.4,0.5-1.6c0-0.3,0.1-0.4,0.3-0.6c0.1-0.1,0.1-0.3,0.1-0.6c-0.1-0.1-0.1-0.1-0.1-0.2
		c0,0,0,0,0.1-0.1c0.3,0,0.2,0,0.2-0.2l0.3-0.6l0.8-1.3l1-1.5l0.4-0.7c0-0.1,0.1-0.2,0.2-0.3c0.1-0.2,0.2-0.4,0.3-0.7
		c0.6-1,1.2-1.6,1.7-1.8c0.2-0.1,0.2-0.1,0.2-0.2c0-0.3,1.9-1.1,2.5-1.1C376.3,0.8,376.9,0.9,377.2,1.1z M380.2,10.3
		c-0.1,0.1-0.4,1.1-0.4,1.5c0.2,0.3,0,0.2-0.1,0.1c-0.3,0-0.5,0.8-0.3,1c0.2,0.3,0.2,0.3-0.2,0.5c-0.1,0-0.1,0-0.2,0
		c0,0-0.1,0-0.1,0c0,0.2,0.2,0.2,0.3,0v0.5c-0.1,0.5-0.3,1-0.8,1.4c-0.5,0.3-1.2,1.5-1.2,1.7c0,0.1,0,0.3-0.2,0.3l-0.1,0.1
		c0,0-0.1,0.1-0.1,0.2c0,0.1,0,0.3-0.2,0.4l-0.1,0.4c0,0.3-0.1,0.5-0.1,0.8c0,0.3,0,0.4-0.1,0.7l-0.1,0.4l-0.1,0.2c0,0,0,0.1,0,0.1
		c0,0.2-0.2,0.4-0.5,0.7c-0.5,0.4-0.5,0.6-0.5,1.2v0.8c0.2,0.1,0.2,0.4,0,0.8l-0.2,0.4l-0.1,0.2V25c-0.1,0-0.3,0.3-0.3,0.5l-0.1,0.7
		l0.5-0.5c0.5-0.4,1.1-1.7,1.5-2.7c0.1-0.5,0.5-1.3,0.9-1.9c0.7-1.2,2-4.2,2.5-5.8c0.1-0.7,0.5-1.3,0.5-1.4c0.2-0.3,0-0.3-0.2,0
		c-0.5,0.4-0.7,0.4-0.5-0.1c0-0.4,0.1-0.4,0.5-0.4c0.4,0,0.4-0.3,0-0.3c-0.2,0-0.2-0.1,0-0.4c0.2-0.1,0.2-0.3,0-0.3l-0.2,0.3
		c-0.1-0.3-0.3-0.3-0.3,0.1c0-0.1,0-0.3,0.1-0.3c0.3,0,0.5-0.3,0.7-1.2v-0.7v-0.1H380.2z M377.8,57.9c0,0.3,0,0.9,0.2,1.3
		c0.1,0.5,0.3,1.1,0.3,1.5c0,0.8,1.2,2.9,1.2,2.5c0-0.3,0.1-0.4,0.3-0.4c0.2,0,0.2-0.3-0.3-0.7c-0.3-0.3-1.2-2.1-1.5-3.6
		C378,58.3,377.9,58.1,377.8,57.9c0,0,0-0.1,0-0.1V57.9z M382.2,56.5c0,0,0,0.1,0,0.1c0,0.1,0,0.1-0.1,0.2c-0.2,0.8-0.4,2.6-0.2,3
		c0.3,0.5,0.9,0.6,1,0.2c0.3-0.3,0.3-0.7,0-0.7v-0.6c0-0.1-0.1-0.8-0.4-1.3c-0.1-0.3-0.1-0.5-0.2-0.7L382.2,56.5z M383.5,57.7
		c0,1,0,1.1,0.4,1.1c0.5,0,0.5-0.2,0-1.5l-0.4-0.9V57.7z"/>
</g>
<g id="XMLID_15_">
	<g>
		<path class="st0" d="M399.6,32.3c0.1,0,0.4-0.5,0.3-0.6c-0.1,0-0.1-0.4,0.1-0.9c-2.1,0-4.1-0.1-6.2-0.2c0,0.1-0.1,0.1-0.1,0.2
			c-0.1,0.1-0.5,0.9-0.6,1c-0.1,0.1-0.2,0.2-0.3,0.4c-0.1,0.1-0.2,0.2-0.3,0.3c-0.1,0.1-0.1,0.2,0,0.2c0,0.1,0,0.1,0,0.1
			c0,0,0.1,0.1,0.4,0.2c2.2-0.1,4.4-0.3,6.6-0.4C399.5,32.5,399.5,32.4,399.6,32.3z"/>
		<path class="st0" d="M392.9,33.1c0.6,0.2,1.9,0.5,3.2,0.5c0.3-0.1,1,0.1,1.4,0.2c0.7,0.1,1.2-0.1,1.3,0c0,0.1,0.3-0.1,0.4-0.4
			c0.1-0.2,0.1-0.4,0.2-0.5c0,0,0.1-0.1,0.1-0.1C397.3,32.8,395.1,32.9,392.9,33.1z"/>
		<path class="st0" d="M400.3,30.3c0.2-0.9,0.4,0.1,0.4-0.9c0-0.3,0.4-0.9,0.5-1c0.1-0.2,0.2-0.9,0.3-0.8c0,0,0.3-0.5,0.4-0.6
			c0.1-0.1-0.1-0.3,0.1-0.4c0.2-0.1,0-0.3,0.1-0.4c0.1,0,0.1-0.1,0.1-0.2c-1.7,0.3-3.5,0.5-5.2,0.7c-0.1,0.1-0.2,0.2-0.3,0.3
			c-0.2,0.2-0.4,0.4-0.5,0.6c-0.4,0.4-0.7,0.8-0.8,1c-0.1,0.2-0.4,0.5-0.7,0.9c-0.1,0.1-0.3,0.3-0.5,0.5c-0.1,0.2-0.2,0.3-0.3,0.4
			c2.1,0.1,4.1,0.2,6.2,0.2C400.1,30.6,400.2,30.4,400.3,30.3z"/>
		<path class="st0" d="M408.9,14.7c0-0.1,0-0.4-0.1-0.6c-0.1-0.2,0.1-0.4,0-0.5s-0.1-0.1-0.2-0.4c-0.1-0.3-0.2-0.3-0.6-0.1
			c0,0.1,0,0-0.1,0.2c-0.1,0.2-0.6,0.6-0.6,0.7c-0.3,0.4-0.4,0.7-0.5,0.7c-0.1,0.1-0.1,0.2-0.2,0.3c-0.1,0.1-0.2,0.2-0.2,0.2
			c-0.2,0-0.4,0.2-0.7,0.5c-0.3,0.3-0.6,0.8-0.8,1.2c-0.1,0.1-0.4,0.6-0.6,0.9c0,0-0.1,0.1-0.1,0.2c0.3-0.1,0.5-0.2,0.8-0.4
			c-0.3,0.1-0.5,0.2-0.8,0.4c-0.2,0.3-0.5,0.7-0.5,0.6c0.1-0.1-0.4,0.6-0.6,0.8c-0.2,0.2-0.4,0.4-0.5,0.4c-0.1,0.1-0.3,0.3-0.4,0.4
			c-0.2,0.2,0,0.3-0.2,0.5c-0.2,0.2-0.1,0.2-0.2,0.4c-0.1,0.2-0.2,0.3-0.3,0.5c-0.1,0.1-0.1,0.2-0.2,0.3c-0.1,0.1-0.2,0.1-0.2,0.1
			c-0.1,0.1-0.1,0.1-0.2,0.1c-0.1,0-0.1,0.1-0.2,0.2l-0.2,0.2c-0.1,0.2-0.3,0.4-0.4,0.6c-0.3,0.3-0.5,0.5-0.5,0.7
			c0,0.2-0.1,0.3-0.2,0.4c-0.1,0.1-0.1,0.1-0.1-0.1c0-0.1-0.1-0.1-0.1,0.1c-0.1,0.3-0.2,0.5-0.4,0.7c-0.2,0.2-0.3,0.3-0.3,0.2
			c0-0.1-0.1,0-0.3,0.3c-0.2,0.3-0.5,0.6-0.7,1c0,0.1-0.1,0.2-0.2,0.3c1.7-0.2,3.5-0.5,5.2-0.7c0-0.1,0.1-0.2,0.1-0.2
			c0,0,0.3-0.3,0.6-0.9c0.1-0.2,0.2-0.3,0.3-0.5c0.1-0.2,0.2-0.4,0.3-0.6c0.1-0.2,0.2-0.5,0.3-0.7c0.2-0.3,0.4-0.6,0.5-0.9
			c0.2-0.4,0.4-0.7,0.6-0.9c0.2-0.4,0.3-0.6,0.4-0.6c0.1-0.1,0.2-0.5,0.4-0.7c0.2-0.2,0.2-0.4,0.3-0.6c0-0.1,0.2-0.3,0.3-0.5
			c0.2-0.3,0.9-2,0.9-2c0,0-0.7,1.9-0.8,2.3l-0.1,0.8c0,0-0.2,0.3-0.4,1c-0.1,0.2-0.1,0.4-0.2,0.6c-0.1,0.2-0.2,0.3-0.3,0.6
			c-0.1,0.3-0.2,0.6-0.3,0.9c-0.2,0.5-0.3,0.7-0.4,1.2c-0.2,0.5-0.4,1-0.5,1.5c0,0,0,0.1,0,0.1c1.6-0.3,3.2-0.5,4.8-0.8
			c0-0.2,0-0.4,0-0.6c0-0.4,0-0.8,0-1.1c0-0.4,0-0.8,0-1.3c0,0,0-0.1-0.1-0.2c0-0.1,0-0.3,0-0.5c0-0.1,0-0.5,0-1.2
			c0-0.6,0-1.4,0-2.3c0-0.7,0-1.2,0-1.6c0-0.4,0.1-0.9,0.1-1.1C408.8,15,408.9,14.9,408.9,14.7z"/>
		<path class="st0" d="M408.7,30.7c0-0.4,0-0.6,0-0.8c0-0.2,0-0.4,0-0.6c0-0.2,0-0.3,0-0.5c0-0.1,0-0.3,0-0.6c0-0.3,0-0.6,0-0.8
			c0-0.3,0-0.7,0.1-1c0-0.4,0-0.7,0-0.9c0-0.1,0-0.3,0-0.5c-1.6,0.3-3.2,0.5-4.8,0.8c-0.1,0.2-0.2,0.5-0.3,0.7
			c-0.1,0.2-0.2,0.5-0.3,0.7c-0.2,0.6-0.4,1-0.4,1.1c0,0.7-0.5,0.8-0.5,1.5c0,0.3-0.1,0.7-0.3,1C404.4,30.8,406.5,30.8,408.7,30.7
			C408.7,30.7,408.7,30.7,408.7,30.7z"/>
		<path class="st0" d="M408.6,31.9c0-0.4,0-0.8,0-1.2c-2.1,0-4.2,0.1-6.4,0c-0.1,0.3-0.2,0.5-0.3,0.6c0,0.3-0.3,0.6-0.3,1
			c0,0,0,0.1,0,0.2c2.3-0.1,4.7-0.3,7-0.4C408.6,32,408.6,32,408.6,31.9z"/>
		<path class="st0" d="M401.7,32.5c-0.1,0.3-0.4,0.8-0.4,1.1c0,0.4,0.1,0.7,0.2,0.9c0.2,0.3,0.5,0.4,0.6,0.7
			c0.1,0.1,0.4,0.2,0.7,0.6c0.2,0.2,0.5,0.5,0.6,0.5c0.2,0.1,0.3,0.3,0.5,0.3c0.3,0,0.5-0.2,0.5-0.1c0,0.1,0.3-0.7,0.5-1.2
			c0.1-0.3,0.3-0.7,0.5-0.8c0.2-0.1,0.5,0.3,0.8,0.3s0.8,0.2,1,0.3c0.3,0.1,0.3,0.1,0.6,0.2c0.4,0.1,0.6,0.2,0.6,0.1
			c0-0.3,0.1-0.6,0.2-0.9c0-0.3,0.1-0.7,0.1-1.1c0-0.4-0.1-0.8-0.1-1.2C406.3,32.2,404,32.4,401.7,32.5z"/>
	</g>
</g>
</svg>
